<svg width="32" height="32" viewBox="0 0 32 32" fill="none" xmlns="http://www.w3.org/2000/svg">
  <!-- Background circle -->
  <circle cx="16" cy="16" r="16" fill="#4F46E5"/>
  
  <!-- Running figure -->
  <path d="M8 20C8 20 10 18 12 18C14 18 16 20 16 20" stroke="white" stroke-width="2" stroke-linecap="round" fill="none"/>
  <circle cx="10" cy="16" r="2" fill="white"/>
  <path d="M12 14C12 14 14 12 16 12C18 12 20 14 20 14" stroke="white" stroke-width="2" stroke-linecap="round" fill="none"/>
  
  <!-- Pace lines -->
  <path d="M6 24L8 22L10 24L12 22L14 24L16 22L18 24L20 22L22 24L24 22L26 24" stroke="white" stroke-width="1.5" stroke-linecap="round" fill="none"/>
  
  <!-- Time indicator -->
  <text x="16" y="28" font-family="Arial, sans-serif" font-size="6" font-weight="bold" fill="white" text-anchor="middle">42.2</text>
</svg>
